<svg width="82" height="90" viewBox="0 0 82 90" fill="none" xmlns="http://www.w3.org/2000/svg">
<path d="M43.8 59.3505L42.8009 59.3096L43.8 59.3505ZM0.287473 7.30623C-0.100035 7.69975 -0.0951625 8.3329 0.298355 8.7204L6.7111 15.0352C7.10462 15.4227 7.73776 15.4178 8.12527 15.0243C8.51278 14.6308 8.50791 13.9977 8.11439 13.6102L2.41417 7.99699L8.02733 2.29678C8.41484 1.90326 8.40996 1.27011 8.01645 0.882605C7.62293 0.495098 6.98978 0.49997 6.60227 0.893488L0.287473 7.30623ZM80.717 86.0942C74.3696 87.9674 65.0177 88.8187 57.4763 85.4655C53.7321 83.8007 50.4296 81.0996 48.1285 76.9455C45.822 72.7814 44.4846 67.0893 44.7992 59.3913L42.8009 59.3096C42.4754 67.273 43.8514 73.3515 46.379 77.9146C48.9122 82.4877 52.5646 85.4703 56.6637 87.293C64.809 90.9147 74.6971 89.9561 81.2831 88.0124L80.717 86.0942ZM44.7992 59.3913C45.1976 49.6429 45.7259 41.4537 45.5371 34.7304C45.3484 28.0085 44.444 22.56 41.8524 18.3353C39.2314 14.0627 34.9783 11.1857 28.4249 9.40344C21.9018 7.62936 13.0157 6.91538 0.992305 7.00791L1.0077 9.00785C12.9843 8.91568 21.6481 9.63302 27.9001 11.3333C34.1217 13.0254 37.8686 15.6659 40.1476 19.3811C42.456 23.144 43.3517 28.1533 43.5379 34.7865C43.7241 41.4182 43.2025 49.4813 42.8009 59.3096L44.7992 59.3913Z" fill="#5C6474"/>
</svg>
