<svg width="132" height="137" viewBox="0 0 132 137" fill="none" xmlns="http://www.w3.org/2000/svg">
<path d="M74.5 48L75.4994 48.0345L74.5 48ZM37.5 134L37.7072 133.022L37.699 133.02L37.6909 133.018L37.5 134ZM0.940858 126.171C0.482974 126.48 0.362122 127.101 0.670928 127.559L5.7032 135.021C6.01201 135.479 6.63353 135.6 7.09142 135.291C7.5493 134.982 7.67015 134.36 7.36135 133.903L2.88821 127.27L9.52079 122.797C9.97867 122.488 10.0995 121.867 9.79072 121.409C9.48192 120.951 8.86039 120.83 8.40251 121.139L0.940858 126.171ZM131.73 2.02682C122.415 -0.17488 108.305 -0.548222 96.271 5.58402C84.1452 11.7629 74.3114 24.4536 73.5006 47.9655L75.4994 48.0345C76.2887 25.1465 85.7881 13.1704 97.179 7.366C108.661 1.5149 122.252 1.84156 131.27 3.97319L131.73 2.02682ZM73.5006 47.9655C73.0007 62.4635 73.093 75.7143 72.8518 87.1508C72.6096 98.6361 72.0311 108.32 70.2151 115.892C68.4005 123.458 65.3918 128.741 60.424 131.653C55.4347 134.577 48.2334 135.251 37.7072 133.022L37.2928 134.978C48.0166 137.249 55.8153 136.673 61.4354 133.378C67.077 130.072 70.287 124.167 72.1599 116.358C74.0314 108.555 74.6092 98.6764 74.8513 87.193C75.0945 75.6607 74.9993 62.5365 75.4994 48.0345L73.5006 47.9655ZM1.30913 127.982L37.3091 134.982L37.6909 133.018L1.69087 126.018L1.30913 127.982Z" fill="#5C6474"/>
</svg>
