<svg width="63" height="96" viewBox="0 0 63 96" fill="none" xmlns="http://www.w3.org/2000/svg">
<path d="M42.7717 33.7234L43.7696 33.7874L43.7717 33.7554V33.7234H42.7717ZM62.1103 9.89125C62.5478 9.55417 62.6292 8.92626 62.2921 8.48877L56.7991 1.35951C56.462 0.922018 55.8341 0.840622 55.3966 1.1777C54.9591 1.51478 54.8777 2.14269 55.2148 2.58018L60.0975 8.91731L53.7604 13.8C53.3229 14.1371 53.2415 14.765 53.5786 15.2025C53.9157 15.64 54.5436 15.7214 54.9811 15.3843L62.1103 9.89125ZM0.941623 91.4316C7.19815 95.6428 16.9942 97.8014 25.7349 90.3032C34.3539 82.9096 41.6852 66.3046 43.7696 33.7874L41.7737 33.6594C39.6963 66.0671 32.4034 81.9477 24.4327 88.7853C16.5839 95.5183 7.82498 93.6538 2.05838 89.7725L0.941623 91.4316ZM43.7717 33.7234C43.7717 23.0943 46.8326 17.0412 50.468 13.7316C54.122 10.4051 58.4979 9.71832 61.3714 10.0908L61.6286 8.10741C58.2593 7.67066 53.271 8.47519 49.1216 12.2527C44.9535 16.0472 41.7717 22.7108 41.7717 33.7234H43.7717Z" fill="#5C6474"/>
</svg>
