<?xml version="1.0" encoding="UTF-8"?>
<svg xmlns="http://www.w3.org/2000/svg" xmlns:xlink="http://www.w3.org/1999/xlink" width="20px" height="20px" viewBox="0 0 20 20" version="1.1">
<g id="surface1">
<path style=" stroke:none;fill-rule:evenodd;fill:rgb(0%,0%,0%);fill-opacity:1;" d="M 15.820312 14.121094 C 15.578125 14.804688 14.621094 15.367188 13.859375 15.53125 C 13.335938 15.644531 12.652344 15.730469 10.355469 14.78125 C 7.773438 13.710938 4.191406 9.902344 4.191406 7.367188 C 4.191406 6.074219 4.933594 4.574219 6.234375 4.574219 C 6.859375 4.574219 7 4.585938 7.203125 5.078125 C 7.445312 5.660156 8.035156 7.097656 8.105469 7.242188 C 8.394531 7.847656 7.808594 8.199219 7.386719 8.726562 C 7.253906 8.882812 7.097656 9.054688 7.269531 9.347656 C 7.441406 9.636719 8.027344 10.59375 8.890625 11.363281 C 10.007812 12.359375 10.914062 12.675781 11.238281 12.808594 C 11.476562 12.910156 11.765625 12.886719 11.941406 12.699219 C 12.164062 12.457031 12.441406 12.058594 12.722656 11.664062 C 12.921875 11.382812 13.175781 11.347656 13.441406 11.445312 C 13.621094 11.507812 15.894531 12.566406 15.992188 12.734375 C 16.0625 12.855469 16.0625 13.4375 15.820312 14.121094 M 10.003906 0 L 9.996094 0 C 4.484375 0 0 4.484375 0 10 C 0 12.1875 0.703125 14.214844 1.902344 15.859375 L 0.65625 19.578125 L 4.5 18.347656 C 6.082031 19.394531 7.96875 20 10.003906 20 C 15.515625 20 20 15.515625 20 10 C 20 4.484375 15.515625 0 10.003906 0 "/>
</g>
</svg>
