<svg width="62" height="83" viewBox="0 0 62 83" fill="none" xmlns="http://www.w3.org/2000/svg">
<path d="M43.3952 29.0556L44.3842 29.2037L43.3952 29.0556ZM61.7312 76.033C62.108 75.6291 62.086 74.9963 61.6821 74.6196L55.1009 68.4805C54.6971 68.1038 54.0643 68.1258 53.6876 68.5297C53.3109 68.9335 53.3329 69.5663 53.7367 69.943L59.5866 75.4L54.1297 81.2499C53.753 81.6538 53.775 82.2865 54.1788 82.6633C54.5827 83.04 55.2155 83.018 55.5922 82.6141L61.7312 76.033ZM1.37381 6.49002C9.45208 3.23427 21.0983 0.56531 29.9958 2.86003C34.4002 3.99596 38.0771 6.33146 40.3743 10.38C42.685 14.4524 43.6803 20.3994 42.4062 28.9075L44.3842 29.2037C45.6969 20.4375 44.7222 13.9902 42.1138 9.393C39.4918 4.77198 35.3004 2.1627 30.4952 0.923406C20.9735 -1.53231 8.83534 1.32651 0.626191 4.63501L1.37381 6.49002ZM42.4062 28.9075C41.5993 34.2963 40.8034 39.0772 40.0858 43.3197C39.369 47.5579 38.7284 51.2702 38.2356 54.5034C37.258 60.9169 36.8239 65.644 37.6164 69.0154C38.0221 70.7417 38.7577 72.1599 39.9326 73.2715C41.0986 74.3747 42.6272 75.1097 44.5093 75.5957C48.2265 76.5557 53.6053 76.6085 61.0347 76.3502L60.9653 74.3514C53.4845 74.6115 48.3993 74.5347 45.0094 73.6592C43.338 73.2276 42.1523 72.6184 41.3072 71.8187C40.4709 71.0275 39.8985 69.9841 39.5633 68.5578C38.8737 65.624 39.2255 61.2821 40.2128 54.8047C40.7024 51.5924 41.3389 47.9037 42.0578 43.6532C42.776 39.407 43.5744 34.6114 44.3842 29.2037L42.4062 28.9075Z" fill="#5C6474"/>
</svg>
