<svg width="89" height="117" viewBox="0 0 89 117" fill="none" xmlns="http://www.w3.org/2000/svg">
<path d="M62.4731 41.6806L63.462 41.8287L62.4731 41.6806ZM88.7312 109.491C89.108 109.087 89.086 108.454 88.6821 108.077L82.1009 101.938C81.6971 101.562 81.0643 101.584 80.6876 101.988C80.3109 102.391 80.3328 103.024 80.7367 103.401L86.5866 108.858L81.1297 114.708C80.753 115.112 80.775 115.744 81.1788 116.121C81.5827 116.498 82.2155 116.476 82.5922 116.072L88.7312 109.491ZM1.37381 8.54316C13.1167 3.81045 30.1145 -0.102264 43.1562 3.26131C49.6328 4.93166 55.0801 8.37973 58.4841 14.3789C61.9016 20.4019 63.3402 29.1377 61.4841 41.5325L63.462 41.8287C65.3568 29.1758 63.9388 19.9398 60.2236 13.3919C56.4948 6.82026 50.5331 3.0984 43.6557 1.32468C29.9897 -2.19989 12.5 1.90269 0.626191 6.68815L1.37381 8.54316ZM61.4841 41.5325C60.3133 49.3505 59.1587 56.2861 58.1181 62.4386C57.0783 68.5868 56.1503 73.9642 55.4365 78.6477C54.0168 87.9617 53.4059 94.7293 54.5318 99.5194C55.1043 101.955 56.1342 103.927 57.7616 105.467C59.3801 106.998 61.5194 108.036 64.201 108.728C69.5172 110.101 77.2505 110.183 88.0347 109.808L87.9653 107.809C77.1297 108.186 69.6901 108.08 64.7011 106.792C62.2302 106.153 60.4338 105.242 59.1361 104.014C57.8474 102.795 56.9807 101.197 56.4787 99.0617C55.4557 94.7093 55.9843 88.3269 57.4136 78.949C58.1243 74.2865 59.0482 68.9325 60.0901 62.7721C61.1313 56.6159 62.2885 49.6656 63.462 41.8287L61.4841 41.5325Z" fill="#5C6474"/>
</svg>
