<svg width="82" height="87" viewBox="0 0 82 87" fill="none" xmlns="http://www.w3.org/2000/svg">
<path d="M45.9231 29.5775L46.9225 29.6119L45.9231 29.5775ZM23.1538 82.5005L23.361 81.5222L23.3529 81.5205L23.3447 81.5189L23.1538 82.5005ZM0.440858 77.3638C-0.0170256 77.6726 -0.137878 78.2941 0.170928 78.752L5.2032 86.2136C5.51201 86.6715 6.13353 86.7924 6.59142 86.4836C7.0493 86.1748 7.17015 85.5532 6.86135 85.0954L2.38821 78.4628L9.02079 73.9896C9.47867 73.6808 9.59953 73.0593 9.29072 72.6014C8.98191 72.1435 8.36039 72.0227 7.90251 72.3315L0.440858 77.3638ZM81.23 0.911998C75.4408 -0.45637 66.6577 -0.695097 59.146 3.13265C51.5427 7.00705 45.4267 14.9541 44.9237 29.543L46.9225 29.6119C47.404 15.647 53.1855 8.41458 60.054 4.91463C67.0141 1.36803 75.2772 1.56007 80.77 2.85837L81.23 0.911998ZM44.9237 29.543C44.6161 38.464 44.6723 46.6427 44.5243 53.6621C44.3752 60.7304 44.0191 66.6522 42.9122 71.2673C41.8068 75.8764 39.994 79.0084 37.0664 80.7244C34.1174 82.4529 29.8007 82.8859 23.361 81.5222L22.9467 83.4788C29.5839 84.8844 34.498 84.5481 38.0778 82.4498C41.6791 80.3388 43.6933 76.5862 44.857 71.7337C46.0194 66.8873 46.3748 60.7707 46.5238 53.7043C46.6739 46.5891 46.6147 38.537 46.9225 29.6119L44.9237 29.543ZM0.809131 79.1745L22.963 83.4821L23.3447 81.5189L1.19087 77.2112L0.809131 79.1745Z" fill="#5C6474"/>
</svg>
