<svg width="124" height="19" viewBox="0 0 124 19" fill="none" xmlns="http://www.w3.org/2000/svg">
<path d="M123.878 9.66494C124.142 9.18001 123.964 8.57263 123.479 8.30831L115.576 4.00102C115.091 3.7367 114.484 3.91554 114.22 4.40047C113.955 4.8854 114.134 5.49278 114.619 5.7571L121.643 9.5858L117.815 16.6101C117.55 17.095 117.729 17.7024 118.214 17.9667C118.699 18.2311 119.306 18.0522 119.571 17.5673L123.878 9.66494ZM1.08621 3.31294C9.56189 2.57952 23.7704 1.84494 38.8151 2.02852C53.8758 2.2123 69.7001 3.31589 81.4443 6.23134L81.9262 4.29026C69.9509 1.31743 53.9385 0.212915 38.8395 0.0286726C23.7244 -0.155766 9.45006 0.581726 0.913791 1.32038L1.08621 3.31294ZM81.4443 6.23134C93.3572 9.18866 102.776 10.467 109.723 10.8594C116.64 11.2501 121.174 10.7665 123.282 10.1456L122.718 8.22707C120.938 8.75114 116.674 9.24889 109.836 8.86262C103.027 8.47807 93.7329 7.22122 81.9262 4.29026L81.4443 6.23134Z" fill="#5C6474"/>
</svg>
