<svg width="89" height="133" viewBox="0 0 89 133" fill="none" xmlns="http://www.w3.org/2000/svg">
<path d="M61 44.5L61.998 44.564L62 44.532V44.5H61ZM88.6103 9.79214C89.0478 9.45506 89.1292 8.82715 88.7921 8.38967L83.2991 1.2604C82.962 0.822909 82.3341 0.741513 81.8966 1.07859C81.4591 1.41567 81.3777 2.04359 81.7148 2.48107L86.5975 8.8182L80.2604 13.7009C79.8229 14.038 79.7415 14.6659 80.0786 15.1034C80.4157 15.5409 81.0436 15.6223 81.4811 15.2852L88.6103 9.79214ZM0.941624 127.33C9.85325 133.328 23.7468 136.375 36.1511 125.734C48.4336 115.198 58.9944 91.4188 61.998 44.564L60.002 44.436C57.0056 91.1812 46.4831 114.236 34.8489 124.216C23.3365 134.092 10.4801 131.339 2.05838 125.67L0.941624 127.33ZM62 44.5C62 29.0917 66.4396 20.2303 71.7982 15.352C77.1755 10.4566 83.6193 9.4405 87.8714 9.99171L88.1286 8.0083C83.3807 7.39284 76.3245 8.52671 70.4518 13.873C64.5604 19.2364 60 28.7083 60 44.5H62Z" fill="#5C6474"/>
</svg>
