<svg width="110" height="118" viewBox="0 0 110 118" fill="none" xmlns="http://www.w3.org/2000/svg">
<path d="M58.78 77.3232L57.7809 77.2824L58.78 77.3232ZM0.287473 7.30899C-0.100035 7.70251 -0.0951625 8.33565 0.298355 8.72316L6.7111 15.038C7.10462 15.4255 7.73776 15.4206 8.12527 15.0271C8.51278 14.6336 8.50791 14.0004 8.11439 13.6129L2.41417 7.99975L8.02733 2.29953C8.41484 1.90602 8.40996 1.27287 8.01645 0.885362C7.62293 0.497854 6.98978 0.502726 6.60227 0.896244L0.287473 7.30899ZM108.717 113.763C100.106 116.304 87.3873 117.472 77.1008 112.898C71.984 110.623 67.4644 106.927 64.3174 101.246C61.1648 95.5548 59.3526 87.8028 59.7792 77.3641L57.7809 77.2824C57.3435 87.9865 59.1943 96.1248 62.5678 102.215C65.947 108.316 70.8165 112.293 76.2882 114.726C87.1787 119.568 100.434 118.293 109.283 115.681L108.717 113.763ZM59.7792 77.3641C60.3176 64.1897 61.0297 53.1564 60.7753 44.0959C60.5209 35.0368 59.3015 27.7582 55.8524 22.1356C52.3739 16.4653 46.7208 12.6227 37.9318 10.2324C29.1731 7.85028 17.2157 6.88582 0.992305 7.01066L1.0077 9.0106C17.1843 8.88612 28.9194 9.85393 37.4069 12.1623C45.8642 14.4624 51.0111 18.0684 54.1476 23.1814C57.3135 28.3422 58.5242 35.1817 58.776 44.152C59.0279 53.1208 58.3225 64.0282 57.7809 77.2824L59.7792 77.3641Z" fill="#5C6474"/>
</svg>
