<svg width="42" height="42" viewBox="0 0 42 42" fill="none" xmlns="http://www.w3.org/2000/svg">
<path d="M5.4441 21C7.58363 19.3952 10.2302 18.6161 12.8978 18.8057C15.5655 18.9953 18.0753 20.1409 19.9664 22.0321C21.8575 23.9234 23.003 26.4333 23.1925 29.1012C23.3821 31.7691 22.6031 34.4159 20.9984 36.5555M5.4441 21C4.06336 22.0341 2.94275 23.376 2.1713 24.919C1.39984 26.4621 0.998793 28.1637 1 29.8889C0.99929 31.0062 1.16709 32.1172 1.49774 33.1844C2.10214 35.14 1.66662 37.3178 1.27776 39.3711C1.24328 39.5466 1.25464 39.7281 1.31075 39.8979C1.36685 40.0677 1.46581 40.2202 1.59806 40.3406C1.73031 40.461 1.89137 40.5453 2.0657 40.5853C2.24002 40.6253 2.42171 40.6196 2.59321 40.5689C4.47751 40.0533 6.3507 39.6133 8.27499 40.32C9.50328 40.7712 10.8017 41.0014 12.1103 41C13.8353 41.0015 15.537 40.6006 17.08 39.8291C18.6229 39.0575 19.9646 37.9367 20.9984 36.5555M5.4441 21C5.4441 10.5889 11.8325 1 23.2205 1C26.0713 0.999503 28.8804 1.68469 31.4108 2.99777C33.9412 4.31085 36.1188 6.2133 37.7597 8.54463C39.4007 10.876 40.4569 13.5678 40.8393 16.393C41.2217 19.2183 40.9191 22.094 39.957 24.7778C38.8993 27.7244 40.0392 31.6711 40.7058 34.9289C40.7447 35.1023 40.7367 35.283 40.6827 35.4524C40.6287 35.6217 40.5306 35.7737 40.3986 35.8926C40.2665 36.0116 40.1052 36.0933 39.9311 36.1293C39.7571 36.1654 39.5766 36.1545 39.4081 36.0978C36.4928 35.1867 33.0708 33.9067 30.3311 35.0622C27.3668 36.3111 24.2515 36.5555 20.9984 36.5555" stroke="white" stroke-width="1.5" stroke-linecap="round" stroke-linejoin="round"/>
</svg>
