<svg width="34" height="188" viewBox="0 0 34 188" fill="none" xmlns="http://www.w3.org/2000/svg">
<path d="M17 84.4375C17 84.1557 16.8881 83.8855 16.6888 83.6862C16.4895 83.4869 16.2193 83.375 15.9375 83.375C15.6557 83.375 15.3855 83.4869 15.1862 83.6862C14.9869 83.8855 14.875 84.1557 14.875 84.4375V96.125C14.8751 96.3123 14.9246 96.4962 15.0187 96.6582C15.1127 96.8201 15.2479 96.9544 15.4105 97.0473L22.848 101.297C23.0921 101.429 23.3781 101.46 23.6448 101.384C23.9116 101.308 24.138 101.131 24.2757 100.89C24.4133 100.649 24.4513 100.364 24.3815 100.095C24.3116 99.8266 24.1396 99.5961 23.902 99.4528L17 95.5088V84.4375Z" fill="white"/>
<path d="M17 111C21.5087 111 25.8327 109.209 29.0208 106.021C32.2089 102.833 34 98.5087 34 94C34 89.4913 32.2089 85.1673 29.0208 81.9792C25.8327 78.7911 21.5087 77 17 77C12.4913 77 8.1673 78.7911 4.97919 81.9792C1.79107 85.1673 0 89.4913 0 94C0 98.5087 1.79107 102.833 4.97919 106.021C8.1673 109.209 12.4913 111 17 111ZM31.875 94C31.875 97.9451 30.3078 101.729 27.5182 104.518C24.7286 107.308 20.9451 108.875 17 108.875C13.0549 108.875 9.27139 107.308 6.48179 104.518C3.69218 101.729 2.125 97.9451 2.125 94C2.125 90.0549 3.69218 86.2714 6.48179 83.4818C9.27139 80.6922 13.0549 79.125 17 79.125C20.9451 79.125 24.7286 80.6922 27.5182 83.4818C30.3078 86.2714 31.875 90.0549 31.875 94Z" fill="white"/>
<path d="M17 0V69" stroke="white" stroke-width="2"/>
<path d="M17 119V188" stroke="white" stroke-width="2"/>
</svg>
