<svg width="188" height="34" viewBox="0 0 188 34" fill="none" xmlns="http://www.w3.org/2000/svg">
<path d="M94 7.4375C94 7.15571 93.8881 6.88546 93.6888 6.6862C93.4895 6.48694 93.2193 6.375 92.9375 6.375C92.6557 6.375 92.3855 6.48694 92.1862 6.6862C91.9869 6.88546 91.875 7.15571 91.875 7.4375V19.125C91.8751 19.3123 91.9246 19.4962 92.0187 19.6582C92.1127 19.8201 92.2479 19.9544 92.4105 20.0473L99.848 24.2973C100.092 24.4292 100.378 24.4604 100.645 24.3842C100.912 24.308 101.138 24.1306 101.276 23.8897C101.413 23.6488 101.451 23.3636 101.381 23.0951C101.312 22.8266 101.14 22.5961 100.902 22.4528L94 18.5088V7.4375Z" fill="white"/>
<path d="M94 34C98.5087 34 102.833 32.2089 106.021 29.0208C109.209 25.8327 111 21.5087 111 17C111 12.4913 109.209 8.1673 106.021 4.97918C102.833 1.79107 98.5087 0 94 0C89.4913 0 85.1673 1.79107 81.9792 4.97918C78.7911 8.1673 77 12.4913 77 17C77 21.5087 78.7911 25.8327 81.9792 29.0208C85.1673 32.2089 89.4913 34 94 34ZM108.875 17C108.875 20.9451 107.308 24.7286 104.518 27.5182C101.729 30.3078 97.9451 31.875 94 31.875C90.0549 31.875 86.2714 30.3078 83.4818 27.5182C80.6922 24.7286 79.125 20.9451 79.125 17C79.125 13.0549 80.6922 9.27139 83.4818 6.48179C86.2714 3.69218 90.0549 2.125 94 2.125C97.9451 2.125 101.729 3.69218 104.518 6.48179C107.308 9.27139 108.875 13.0549 108.875 17Z" fill="white"/>
<path d="M188 17H119" stroke="white" stroke-width="2"/>
<path d="M69 17H0" stroke="white" stroke-width="2"/>
</svg>
