<svg width="24" height="24" viewBox="0 0 24 24" fill="none" xmlns="http://www.w3.org/2000/svg">
<path d="M8.7075 10.3525C9.88042 12.4131 11.5869 14.1196 13.6475 15.2925L14.7525 13.745C14.9302 13.4962 15.1929 13.3211 15.491 13.2529C15.7891 13.1847 16.1018 13.2282 16.37 13.375C18.1379 14.3412 20.0903 14.9223 22.0988 15.08C22.4122 15.1048 22.7048 15.2469 22.9182 15.4779C23.1316 15.7089 23.25 16.0118 23.25 16.3263V21.9038C23.2501 22.2132 23.1353 22.5118 22.928 22.7415C22.7206 22.9713 22.4354 23.1159 22.1275 23.1475C21.4622 23.2162 20.7938 23.2504 20.125 23.25C9.425 23.25 0.75 14.575 0.75 3.875C0.75 3.2025 0.78375 2.535 0.8525 1.8725C0.884068 1.56462 1.02873 1.2794 1.25849 1.07204C1.48824 0.864684 1.78676 0.749933 2.09625 0.75H7.67375C7.9882 0.749961 8.29112 0.868439 8.5221 1.08181C8.75308 1.29519 8.89516 1.58778 8.92 1.90125C9.07774 3.90975 9.65881 5.86211 10.625 7.63C10.7718 7.89821 10.8153 8.21093 10.7471 8.509C10.6789 8.80706 10.5038 9.0698 10.255 9.2475L8.7075 10.3525ZM5.555 9.53125L7.93 7.835C7.25598 6.38012 6.79419 4.83605 6.55875 3.25H3.2625C3.255 3.4575 3.25125 3.66625 3.25125 3.875C3.25 13.195 10.805 20.75 20.125 20.75C20.3337 20.75 20.5425 20.7463 20.75 20.7375V17.4413C19.1639 17.2058 17.6199 16.744 16.165 16.07L14.4688 18.445C13.7858 18.1796 13.1225 17.8663 12.4838 17.5075L12.4113 17.4663C9.95947 16.0709 7.9291 14.0405 6.53375 11.5888L6.4925 11.5163C6.13363 10.8775 5.82035 10.2142 5.555 9.53125Z" fill="white"/>
</svg>
